<svg width="45" height="31" viewBox="0 0 45 31" fill="none" xmlns="http://www.w3.org/2000/svg">
<path d="M45 1.54472V29.2535C45 30.0425 44.3514 30.6911 43.5624 30.6911H1.43754C0.648545 30.6911 0 30.0425 0 29.2535V1.54472C0 0.755723 0.648545 0.11377 1.43754 0.11377H43.5624C44.3514 0.11377 45 0.755723 45 1.54472Z" fill="url(#paint0_linear_338_660)"/>
<g opacity="0.2">
<path d="M26.3119 9.19044C26.2146 9.08102 26.1538 8.98381 26.0323 9.03848C25.9107 9.09314 25.9107 9.17216 25.783 9.07495C25.6554 8.97774 25.7101 8.86217 25.4243 8.7589C25.1386 8.65554 25.0779 8.5948 24.7678 8.55226C24.4578 8.50973 24.2329 8.46719 24.2146 8.46719C24.1964 8.46719 24.2815 8.52185 24.1599 8.58268C24.0384 8.6435 23.9411 8.65562 23.8195 8.57661C23.698 8.4976 23.7041 8.47325 23.4974 8.49153C23.2907 8.50981 23.1692 8.55842 23.078 8.57055C22.9869 8.58267 23.078 8.56448 22.9382 8.46719C22.7983 8.36989 22.8956 8.31522 22.6524 8.33342C22.4093 8.3517 22.306 8.36295 22.2452 8.3299C22.1843 8.29694 22.2573 8.1267 22.0202 8.05375C21.7832 7.9808 21.7345 8.03556 21.613 8.01727C21.4914 7.99908 21.4975 7.96867 21.151 7.94433C20.8045 7.91998 20.8227 7.97474 20.5857 8.04768C20.3487 8.12063 20.2878 8.12063 20.069 8.1085C19.8501 8.09638 19.9049 8.23006 19.7711 8.24834C19.6374 8.26653 19.4247 8.13285 19.4003 8.05384C19.376 7.97482 19.5827 7.88974 19.4003 7.8168C19.2179 7.74385 18.8775 7.60401 18.8107 7.62836C18.7438 7.6527 18.7802 7.76213 18.6587 7.79245C18.5371 7.82286 18.3791 7.82286 18.1907 7.73778C18.0022 7.6527 17.9293 7.6106 17.7287 7.62555C17.5282 7.64049 17.4187 7.70131 17.2485 7.71344C17.0782 7.72557 16.975 7.65262 17.0905 7.59795C17.206 7.54328 17.3518 7.3791 17.3518 7.30009C17.3518 7.22107 17.4369 7.05083 17.2424 7.03264C17.0479 7.01444 17.0114 7.14812 16.8291 7.03264C16.6467 6.91715 16.4097 6.91108 16.3428 6.94756C16.2759 6.98403 16.2759 7.04485 16.1604 7.06305C16.0449 7.08124 16.0875 7.1846 15.9476 7.22107C15.8078 7.25755 15.8261 7.14812 15.5039 7.17853C15.1817 7.20894 14.8717 7.25148 14.7927 7.34263C14.7136 7.43377 14.8109 7.53713 14.6407 7.61614C14.4704 7.69516 14.0814 7.63434 14.0328 7.70122C13.9842 7.7681 14.2456 7.99908 14.0693 8.10244C13.893 8.2058 13.7836 8.02949 13.3764 8.10244C12.9691 8.17539 13.0177 8.16326 12.8658 8.2544C12.7139 8.34555 12.6835 8.28481 12.5923 8.41243C12.5012 8.54005 12.2276 8.65562 12.0391 8.65562C11.8507 8.65562 11.7717 8.54014 11.5285 8.63743C11.2854 8.73473 11.3218 8.80152 10.9388 8.7712C10.5559 8.74079 10.3979 8.74685 10.3249 8.79555C10.252 8.84415 10.252 8.96579 10.0635 9.02046C9.87508 9.07513 9.58329 9.17242 9.51034 9.15423C9.43739 9.13603 9.18822 9.25759 9.01797 9.27578C8.84773 9.29406 8.75052 9.28185 8.69585 9.21496C8.6411 9.14808 8.58037 9.03259 8.66544 9.06906C8.75052 9.10554 8.82347 9.15414 8.97543 9.14808C9.1274 9.14201 9.29764 9.02046 9.26117 8.95357C9.22469 8.88669 9.2551 8.78948 8.95724 8.71653C8.65938 8.64358 8.53176 8.65571 8.30685 8.49162C8.08194 8.32753 8.39193 8.2181 7.80236 8.27884C7.2127 8.33966 7.05467 8.40039 6.81763 8.5767C6.58059 8.75301 6.5319 8.90497 6.28879 9.11767C6.04569 9.33045 6.13077 9.39118 5.82684 9.54314C5.52291 9.69511 5.47431 9.62216 5.38308 9.85313C5.29185 10.0841 5.23112 10.3516 5.41956 10.4003C5.60799 10.4489 5.80249 10.3638 5.89979 10.3273C5.99708 10.2908 6.07003 10.3577 6.08216 10.4671C6.09429 10.5766 6.10036 10.7589 6.222 10.7832C6.34355 10.8075 6.59887 10.6373 6.58674 10.4611C6.57461 10.2848 6.53207 10.1632 6.65363 9.9869C6.77518 9.8106 6.85419 9.68298 6.9819 9.62216C7.10952 9.56134 7.28582 9.452 7.21894 9.59175C7.15206 9.73158 7.0305 9.89567 7.11558 10.0355C7.20066 10.1753 7.39516 10.078 7.44385 10.2179C7.49246 10.3577 7.37697 10.4914 7.34656 10.5401C7.31615 10.5887 7.41951 10.6495 7.27967 10.7468C7.13984 10.844 7.0487 10.9474 6.89673 11.0629C6.74477 11.1783 6.29495 11.2574 6.19159 11.2331C6.08823 11.2088 5.91807 11.2331 5.90585 11.0933C5.89372 10.9534 6.05782 10.8015 5.88766 10.7346C5.71742 10.6677 5.52898 10.7589 5.47431 10.996C5.41956 11.233 5.33448 11.2756 5.19473 11.391C5.0549 11.5065 5.17039 11.8591 4.76319 11.9259C4.3559 11.9928 4.12493 11.8955 4.15534 12.0414C4.18575 12.1873 4.44107 12.0961 4.44713 12.3393C4.4532 12.5824 4.51402 12.6676 4.33771 12.7162C4.1614 12.7648 4.11886 12.6736 3.88182 12.7526C3.64478 12.8317 3.65691 13.1295 3.60831 13.2571C3.5597 13.3848 3.53536 13.5002 3.69338 13.555C3.85141 13.6097 4.10673 13.707 4.29517 13.6279C4.48361 13.5489 4.59303 13.5368 4.61738 13.3909C4.64172 13.245 4.70246 13.1539 4.83016 13.1295C4.95778 13.1052 5.04294 12.9593 5.11581 12.8742C5.18875 12.7891 5.11581 12.8195 5.30424 12.8256C5.49268 12.8317 5.66899 12.6311 5.73579 12.6858C5.80267 12.7404 6.00324 12.856 6.13085 12.9776C6.25847 13.0991 6.43478 13.1356 6.40437 13.318C6.37396 13.5003 6.36183 13.7118 6.48338 13.6577C6.60494 13.6037 6.5624 13.4395 6.64141 13.3605C6.72042 13.2815 6.82378 13.3544 6.81165 13.2146C6.79953 13.0748 6.59281 13.0383 6.48338 12.9107C6.37396 12.7831 6.28888 12.6432 6.42256 12.6858C6.55624 12.7283 6.81157 12.8438 6.83591 12.9411C6.86026 13.0384 7.08517 13.2389 7.10943 13.4274C7.13377 13.6158 7.26746 13.7861 7.32828 13.6888C7.3891 13.5915 7.33434 13.5185 7.46811 13.4943C7.60179 13.4699 7.55319 13.3727 7.62614 13.245C7.69909 13.1174 7.89965 13.3058 7.9726 13.0687C8.04555 12.8317 7.88146 12.75 8.06374 12.6206C8.24612 12.4913 8.32513 12.4062 8.3798 12.5217C8.43447 12.6372 8.5743 12.7587 8.64119 12.6372C8.70807 12.5156 8.51963 12.4791 8.67766 12.3879C8.83569 12.2968 8.97552 12.1873 8.93298 12.3454C8.89044 12.5034 8.82962 12.6067 8.93905 12.7162C9.04847 12.8256 9.37059 12.8925 9.19437 12.9897C9.01806 13.087 8.76283 13.0322 8.5257 13.1356C8.28866 13.2389 8.25218 13.1903 8.19136 13.3848C8.13054 13.5793 8.12448 13.6402 8.32504 13.6402C8.52561 13.6402 8.61684 13.5003 8.67151 13.6766C8.72618 13.8529 8.71405 14.248 8.62897 14.2845C8.54389 14.321 8.50742 14.2663 8.13054 14.3088C7.75367 14.3514 7.77186 14.4426 7.46793 14.2906C7.16401 14.1386 7.09106 13.9502 6.98164 14.1386C6.87221 14.327 6.95122 14.4229 6.71418 14.375C6.47714 14.327 6.6473 14.2238 6.33124 14.1447C6.01519 14.0657 5.95437 14.0901 5.95437 13.9502C5.95437 13.8104 5.99691 13.628 5.74765 13.6098C5.49839 13.5917 5.06079 13.6949 4.7021 13.7983C4.34342 13.9016 4.41637 13.7739 4.00302 13.9198C3.58967 14.0657 3.33435 14.1143 3.29181 14.3392C3.24927 14.5642 3.10944 14.6918 3.0183 14.8134C2.92715 14.935 2.87846 15.47 2.8542 15.7981C2.82986 16.1264 2.91502 15.9745 2.82379 16.2176C2.73256 16.4608 2.98789 16.8437 3.09124 16.947C3.1946 17.0503 3.52894 17.3785 3.74164 17.4029C3.95442 17.4272 3.93614 17.3238 4.26441 17.3724C4.59268 17.421 4.58662 17.2326 4.92095 17.3178C5.25529 17.4029 5.37684 17.4637 5.57134 17.567C5.76584 17.6704 5.78413 17.7555 5.78413 18.0047C5.78413 18.254 5.79625 18.0655 5.97256 18.4181C6.14887 18.7706 6.45886 19.0989 6.27649 19.4028C6.09412 19.7067 6.0151 19.7614 6.13059 20.0471C6.24608 20.3329 6.56829 20.9103 6.60476 21.2021C6.64123 21.4939 6.55009 21.5121 6.58657 21.6884C6.62304 21.8647 6.95131 22.0592 7.24917 21.9377C7.54704 21.8161 7.63818 21.81 7.88137 21.5851C8.12448 21.3602 8.36767 21.5305 8.55004 21.0624C8.73242 20.5943 8.6716 20.5396 8.75061 20.3511C8.82962 20.1627 9.30379 19.8892 9.32199 19.5488C9.34018 19.2084 9.21863 18.9531 9.26117 18.6249C9.30371 18.2966 9.33412 18.011 9.65017 17.7496C9.96623 17.4882 10.0392 17.7435 10.258 17.2512C10.4769 16.7588 10.7383 16.6372 10.4951 16.6433C10.2519 16.6494 9.77779 16.8439 9.57722 16.7344C9.37666 16.625 9.04838 16.1266 8.9815 15.8956C8.91461 15.6646 8.93896 15.7801 8.82347 15.4519C8.70798 15.1236 8.59856 14.9534 8.54996 14.8257C8.50135 14.6981 8.47094 14.4732 8.61684 14.6556C8.76274 14.8379 8.90257 15.1115 9.09708 15.5309C9.29158 15.9503 9.40707 16.2725 9.57731 16.3394C9.74755 16.4063 9.80222 16.4853 10.0575 16.3819C10.3129 16.2786 10.404 16.2664 10.6472 16.1327C10.8903 15.9989 11.0362 15.9746 11.2125 15.7983C11.3888 15.622 11.79 15.5491 11.3463 15.3789C10.9025 15.2087 10.7506 15.306 10.6229 15.1115C10.4953 14.917 10.2886 14.7225 10.477 14.7529C10.6655 14.7833 10.5925 14.8379 10.8053 14.8805C11.0181 14.923 11.1701 14.8272 11.2856 14.9815C11.401 15.1358 11.5955 15.2452 11.7779 15.1601C11.9603 15.075 12.0332 15.0264 12.2277 15.1357C12.4222 15.2451 12.2946 15.5551 12.5864 15.6402C12.8782 15.7253 12.9268 15.4092 12.9876 15.8104C13.0485 16.2117 13.1639 16.5824 13.2672 16.6615C13.3706 16.7405 13.2126 17.1053 13.5407 17.008C13.869 16.9107 13.9662 16.9229 13.9662 16.5825C13.9662 16.2421 13.9541 16.157 14.1303 16.0354C14.3066 15.9138 14.5497 15.7923 14.6591 15.6646C14.7686 15.5369 14.7017 15.4578 14.9205 15.4822C15.1394 15.5065 15.6803 16.1144 15.656 16.242C15.6317 16.3696 15.6074 16.4183 15.7107 16.4973C15.814 16.5763 15.808 16.6007 15.887 16.8863C15.966 17.1721 15.9478 17.1294 16.197 17.397C16.4462 17.6644 16.7988 17.8529 16.7683 17.6583C16.7379 17.4638 16.6164 17.4881 16.507 17.1781C16.3975 16.8681 16.2699 16.5885 16.4158 16.6676C16.5617 16.7466 16.5192 16.8621 16.6711 16.8864C16.8231 16.9108 16.8474 16.7344 16.9629 16.6797C17.0784 16.625 17.2851 16.1813 17.121 15.9868C16.9569 15.7923 16.7866 15.6585 16.9569 15.5978C17.1271 15.5369 17.048 15.5796 17.2487 15.6159C17.4492 15.6524 17.3885 15.5551 17.6316 15.4883C17.8747 15.4214 18.2273 15.312 18.4158 15.0689C18.6042 14.8258 18.8108 14.7529 18.7562 14.4307C18.7015 14.1085 18.6285 13.9687 18.5131 13.8835C18.3976 13.7985 18.3915 13.7376 18.4948 13.7012C18.5981 13.6647 18.8656 13.6586 18.7136 13.5796C18.5617 13.5006 18.6346 13.5431 18.4583 13.5006C18.282 13.4581 18.0936 13.5431 18.2516 13.3972C18.4096 13.2513 18.5312 13.1298 18.5312 13.1298C18.5312 13.1298 18.4886 13.1602 18.592 13.2696C18.6953 13.379 18.7622 13.3304 18.8108 13.3061C18.8594 13.2817 19.0053 13.1785 19.0236 13.294C19.0419 13.4095 18.8352 13.4945 18.9567 13.5371C19.0783 13.5796 19.1877 13.4702 19.1391 13.689C19.0905 13.9079 19.1877 14.1084 19.2911 13.999C19.3944 13.8896 19.5464 13.5675 19.516 13.4337C19.4856 13.3 19.3822 13.3668 19.522 13.1237C19.6619 12.8806 19.6619 12.7104 19.8503 12.7408C20.0388 12.7712 20.2211 12.5888 20.2941 12.5159C20.367 12.4429 20.677 12.2727 20.7256 12.066C20.7742 11.8593 20.75 11.829 20.8168 11.5919C20.8836 11.3548 21.0295 11.3548 20.8472 11.2454C20.6648 11.136 20.525 11.1603 20.4946 11.0387C20.4642 10.9171 20.9809 10.3275 21.2059 10.2363C21.4308 10.1452 21.5888 10.1877 21.7408 10.2545C21.8927 10.3214 21.9413 10.3882 22.0812 10.3031C22.221 10.2181 22.3121 10.1694 22.3911 10.1633C22.4702 10.1572 22.689 9.99306 22.7802 10.066C22.8713 10.139 22.8835 10.218 22.9929 10.1694C23.1024 10.1208 23.2483 9.86544 23.2969 9.95658C23.3455 10.0477 23.3333 10.1571 23.1996 10.3335C23.0658 10.5098 22.9503 10.5402 22.7802 10.6799C22.6099 10.8198 22.5431 10.9657 22.5431 11.0933C22.5431 11.2209 22.4945 11.6465 22.5613 11.6525C22.6282 11.6586 22.6464 11.6404 22.8227 11.4155C22.999 11.1906 23.0901 11.1784 23.2056 11.0933C23.3211 11.0082 23.3637 10.9048 23.3819 10.7043C23.4002 10.5037 23.2725 10.455 23.461 10.3517C23.6494 10.2484 23.8743 10.139 24.0627 10.1694C24.2512 10.1998 24.2086 10.1937 24.3485 10.0539C24.4883 9.91404 24.5855 9.8229 24.7314 9.83503C24.8773 9.84716 25.1143 9.87757 25.1508 9.80462C25.1873 9.73167 25.1569 9.67094 25.163 9.56758C25.169 9.46422 25.1569 9.42168 25.2967 9.3852C25.4366 9.34873 25.4304 9.30013 25.4973 9.27578C25.5642 9.25144 25.6067 9.32438 25.7161 9.36692C25.8256 9.40946 26.093 9.41553 26.1538 9.33651C26.2146 9.25732 26.3119 9.19044 26.3119 9.19044Z" fill="#9FA6A9"/>
<path d="M20.975 12.4972C21.0544 12.5265 21.2059 12.6492 21.2972 12.6431C21.3883 12.6371 21.437 12.7586 21.364 12.7708C21.2911 12.7829 21.048 12.8984 21.048 12.8984C21.048 12.8984 20.975 12.8072 20.9325 12.8984C20.89 12.9895 20.8656 13.0564 20.8778 13.1112C20.89 13.1658 20.9751 13.3239 20.9264 13.403C20.8778 13.482 20.811 13.5245 20.811 13.6218C20.811 13.719 20.8718 13.8224 20.7866 13.8649C20.7015 13.9074 20.6164 13.9197 20.5435 13.9439C20.4706 13.9683 20.4159 13.9743 20.3855 14.0412C20.3551 14.1081 20.2821 14.2053 20.1302 14.1992C19.9782 14.1932 19.9782 14.0716 19.8384 14.1871C19.6985 14.3026 19.6925 14.3695 19.6195 14.3391C19.5466 14.3087 19.6012 14.2661 19.6195 14.1506C19.6377 14.0352 19.3702 14.0656 19.6134 13.9318C19.8565 13.798 19.8565 13.7798 20.0207 13.7555C20.1848 13.7311 20.2761 13.8102 20.3428 13.6704C20.4097 13.5306 20.3428 13.4759 20.4766 13.4698C20.6104 13.4638 20.6955 13.5246 20.7197 13.3725C20.7441 13.2206 20.7258 13.093 20.7197 12.9957C20.7137 12.8984 20.6772 12.8072 20.7866 12.7708C20.896 12.7343 20.9082 12.8012 20.9204 12.7161C20.9324 12.6309 20.8595 12.4547 20.975 12.4972Z" fill="#9FA6A9"/>
<path d="M18.5313 15.792C18.6468 15.8103 18.7014 16.0169 18.6651 16.102C18.6286 16.1871 18.5921 16.2844 18.6955 16.3025C18.7988 16.3208 18.8718 16.333 18.8718 16.4059C18.8718 16.4789 18.9143 16.3269 18.9933 16.5214C19.0723 16.7159 18.9994 16.7463 19.0906 16.8922C19.1818 17.0381 19.2912 17.1111 19.1636 17.184C19.036 17.257 19.1332 17.336 18.9995 17.2934C18.8658 17.2509 18.9205 17.2751 18.8536 17.1475C18.7867 17.0199 18.7442 17.1232 18.6834 17.1171C18.6226 17.1111 18.6044 17.1111 18.653 17.026C18.7016 16.9409 18.726 16.947 18.6713 16.8497C18.6166 16.7524 18.7017 16.6369 18.6227 16.6187C18.5437 16.6005 18.5193 16.7342 18.3796 16.8193C18.2398 16.9043 18.0331 16.9287 18.0392 16.8983C18.0453 16.8679 18.1243 16.8253 18.252 16.6673C18.3796 16.5093 18.4587 16.6065 18.4343 16.3634C18.41 16.1203 18.3249 16.1871 18.4039 16.0169C18.4827 15.8467 18.5313 15.792 18.5313 15.792Z" fill="#9FA6A9"/>
<path d="M18.1421 17.1715C18.2341 17.2635 18.3549 17.2384 18.3184 17.3296C18.282 17.4207 18.1737 17.4329 18.2339 17.5241C18.2941 17.6153 18.3488 17.749 18.4279 17.7368C18.5069 17.7247 18.5008 17.6639 18.6953 17.6639C18.8898 17.6639 19.0114 17.6213 19.0236 17.7004C19.0357 17.7794 18.9385 17.7854 18.8108 17.9009C18.6832 18.0164 18.5555 18.1319 18.6588 18.2049C18.7622 18.2778 18.8047 18.4116 18.7683 18.4602C18.7318 18.5088 18.6953 18.5575 18.7804 18.6182C18.8655 18.679 19.2727 18.6607 19.1754 18.8066C19.0782 18.9525 18.8411 19.0316 18.5919 19.0376C18.3426 19.0437 18.543 18.9707 18.0386 18.9221C17.5342 18.8735 17.4491 19.0011 17.0966 18.831C16.744 18.6607 16.513 18.8066 16.3185 18.4966C16.124 18.1867 16.203 18.3386 15.9598 18.0164C15.7167 17.6943 15.8322 17.6943 15.6255 17.5666C15.4187 17.439 15.2425 17.2566 15.3824 17.2566C15.5222 17.2566 15.4553 17.0925 15.8868 17.4511C16.3184 17.8097 16.2029 17.7915 16.519 18.0043C16.8351 18.2171 16.9385 18.2413 17.0539 18.2171C17.1694 18.1927 17.3397 18.2171 17.2303 18.0772C17.1208 17.9374 17.06 17.7612 17.1512 17.7308C17.2425 17.7004 17.2363 17.8523 17.3883 17.6882C17.5402 17.5241 17.5402 17.4815 17.674 17.4268C17.8078 17.3722 17.7348 17.4268 17.8625 17.3478C17.9902 17.2688 18.0388 17.0682 18.1421 17.1715Z" fill="#9FA6A9"/>
<path d="M19.814 17.8769C19.8801 17.9619 19.9903 18.0714 20.0389 18.1626C20.0875 18.2538 20.1787 18.0854 20.3549 18.0905C20.5312 18.0957 20.7926 18.1929 20.9021 18.2416C21.0115 18.2903 21.1999 18.3206 21.3154 18.4787C21.4309 18.6367 21.516 18.5455 21.5221 18.7036C21.5282 18.8616 21.5525 18.8434 21.6558 18.9345C21.7592 19.0257 21.7774 19.1959 21.595 19.123C21.4126 19.05 21.3579 18.8009 21.1634 18.8251C20.9689 18.8495 21.048 18.9041 20.896 18.9345C20.744 18.965 20.6771 18.9102 20.4948 18.8981C20.3124 18.8859 20.1787 18.9467 20.2638 18.7826C20.3489 18.6185 20.4097 18.6124 20.1118 18.4908C19.814 18.3692 19.6985 18.43 19.6985 18.3023C19.6985 18.1747 19.7471 18.1625 19.6316 18.0531C19.5161 17.9437 19.4796 17.8646 19.5526 17.8099C19.6255 17.7552 19.7714 17.8221 19.814 17.8769Z" fill="#9FA6A9"/>
<path d="M20.1666 19.6273C20.3672 19.7307 20.4462 19.9373 20.5435 19.9008C20.6408 19.8644 20.6043 19.8036 20.6772 19.5848C20.7501 19.3659 20.7562 19.141 20.8474 19.2323C20.9386 19.3234 20.8535 19.5014 20.9994 19.5583C21.1453 19.6152 21.1757 19.6578 21.2061 19.828C21.2365 19.9982 21.2669 19.9435 21.4189 20.1198C21.5708 20.2961 21.7073 20.2657 21.7333 20.4662C21.7593 20.6668 22.0146 20.8735 22.0267 21.0802C22.0389 21.2869 22.0753 21.4327 21.9234 21.6941C21.7714 21.9555 21.7106 22.0891 21.662 22.1987C21.6134 22.3081 21.4675 22.3628 21.3095 22.3628C21.1514 22.3628 21.0602 22.2959 20.963 22.3202C20.8657 22.3446 20.7989 22.4661 20.6834 22.381C20.5679 22.296 20.501 22.1865 20.4646 22.1196C20.4281 22.0528 20.4099 21.8279 20.2397 21.8522C20.0695 21.8765 20.0938 21.9616 19.9904 21.8522C19.887 21.7428 19.96 21.6516 19.6561 21.6029C19.3521 21.5543 19.2731 21.53 19.1454 21.5604C19.0178 21.5908 18.884 21.6333 18.7442 21.7428C18.6044 21.8522 18.3855 21.7975 18.264 21.8522C18.1424 21.9069 17.96 22.0285 17.8263 21.9556C17.6925 21.8826 17.7412 21.8461 17.7473 21.676C17.7533 21.5057 17.7412 21.6213 17.6561 21.3295C17.571 21.0377 17.6075 21.0803 17.5285 20.9405C17.4495 20.8007 17.3887 20.8676 17.4981 20.667C17.6075 20.4664 17.571 20.4239 17.6318 20.357C17.6926 20.2901 17.7473 20.3753 17.954 20.2354C18.1607 20.0956 18.2214 20.1564 18.4099 20.0835C18.5983 20.0105 18.6408 19.731 18.7563 19.6458C18.8718 19.5607 18.9022 19.4938 18.9873 19.4938C19.0724 19.4938 19.1697 19.5424 19.3216 19.6033C19.4736 19.6641 19.4432 19.6701 19.5709 19.5303C19.6985 19.3905 19.5709 19.2568 19.8019 19.281C20.0328 19.3054 20.1179 19.2689 20.1483 19.4026C20.1787 19.5362 20.1666 19.6273 20.1666 19.6273Z" fill="#9FA6A9"/>
<path d="M24.3851 22.4968C24.5067 22.3387 24.5675 22.3205 24.5249 22.1381C24.4824 21.9557 24.4945 21.8127 24.6526 21.9754C24.8106 22.1381 24.9869 22.2293 25.1084 22.2354C25.23 22.2414 25.5218 22.3327 25.2239 22.5576C24.9261 22.7825 24.9808 22.6245 24.7437 22.9588C24.5067 23.2931 24.689 23.2992 24.4033 23.4633C24.1176 23.6274 23.8015 23.7003 23.8623 23.5545C23.9231 23.4086 23.8927 23.4086 24.1541 23.2141C24.4155 23.0196 24.5857 22.8737 24.5857 22.7096C24.5857 22.5455 24.3851 22.4968 24.3851 22.4968Z" fill="#9FA6A9"/>
<path d="M9.86928 20.8552C9.75986 20.6972 9.75985 20.6485 9.74773 20.3932C9.7356 20.1379 9.65043 20.0164 9.74773 19.8705C9.84502 19.7246 10.1003 19.4815 10.1976 19.3112C10.2948 19.1411 10.3191 18.7763 10.3799 19.1045C10.4407 19.4328 10.6352 19.6273 10.3434 20.065C10.0517 20.5026 9.86928 20.8552 9.86928 20.8552Z" fill="#9FA6A9"/>
<path d="M4.0216 11.8103C3.99725 11.7617 4.10667 11.6036 4.10667 11.6036C4.10667 11.6036 4.24044 11.5307 4.20397 11.2632C4.16749 10.9957 4.14315 11.1538 4.04594 10.8985C3.94865 10.6431 3.80284 10.6917 3.94865 10.5216C4.09455 10.3513 4.2647 10.0961 4.30118 10.3027C4.33765 10.5094 4.25257 10.6431 4.33765 10.7404C4.42273 10.8377 4.59297 10.8578 4.69018 11.0179C4.78747 11.178 5.17648 11.2389 4.88468 11.4455C4.59288 11.6522 4.4592 11.5184 4.34978 11.6643C4.24036 11.8103 4.0216 11.8103 4.0216 11.8103Z" fill="#9FA6A9"/>
<path d="M3.63246 11.6159C3.82696 11.5065 3.89806 11.5308 3.88681 11.3362C3.87556 11.1417 4.00933 10.9715 3.80261 10.9593C3.59598 10.9472 3.53516 11.0688 3.51082 11.1538C3.48647 11.2389 3.48647 11.2633 3.54729 11.3483C3.60811 11.4334 3.62024 11.5551 3.5959 11.6158C3.57173 11.6767 3.63246 11.6159 3.63246 11.6159Z" fill="#9FA6A9"/>
<path d="M2.92736 9.71919C3.08539 9.60977 3.34071 9.70706 3.35284 9.476C3.36497 9.24502 3.42579 9.1842 3.07326 9.15994C2.72073 9.1356 2.72073 9.1356 2.50188 9.15994C2.28303 9.18429 2.0764 8.96544 2.24656 9.29371C2.41671 9.62198 2.44106 9.69493 2.57483 9.71919C2.7086 9.74345 2.92736 9.71919 2.92736 9.71919Z" fill="#9FA6A9"/>
<path d="M27.3999 8.84378C27.2102 8.62687 26.9015 8.6128 27.1446 8.47903C27.3877 8.34535 27.5336 8.26019 27.7647 8.21158C27.9957 8.16298 28.2389 8.26019 28.6157 8.35748C28.9926 8.45478 29.6005 8.36961 29.8801 8.45478C30.1597 8.53985 30.2935 8.7101 30.3786 8.69788C30.4636 8.68575 30.7068 8.43043 30.9499 8.43043C31.193 8.43043 31.3147 8.39396 31.8131 8.45478C32.3115 8.5156 32.7978 8.53985 32.81 8.66149C32.8221 8.78305 32.8221 8.84387 33.0045 8.84387C33.1868 8.84387 33.3449 8.73444 33.4543 8.90469C33.5637 9.07493 33.7339 9.19648 33.7096 9.06271C33.6853 8.92903 33.5637 8.81961 33.661 8.77092C33.7583 8.72231 34.0379 8.69797 34.1108 8.72231C34.1838 8.74666 34.4148 8.78313 34.4877 8.77092C34.5607 8.75879 34.5121 8.63715 34.7552 8.7101C34.9983 8.78305 35.0347 8.96542 35.0834 8.97755C35.132 8.98968 35.2415 8.79061 35.2536 8.65921C35.2657 8.52772 35.3751 8.52772 35.1564 8.35757C34.9375 8.18732 35.1352 7.98069 35.2916 8.05364C35.4481 8.12659 35.3509 8.22389 35.5089 8.38191C35.6669 8.53994 35.6913 8.67371 35.8007 8.62502C35.9101 8.57642 35.8493 8.3697 35.9952 8.52772C36.1411 8.68575 36.1776 8.60612 36.3113 8.57905C36.445 8.55198 36.3356 8.4669 36.4936 8.55198C36.6517 8.63706 36.9191 8.73436 36.7246 8.89238C36.5301 9.05041 36.2383 9.02615 36.0317 9.14771C35.825 9.26926 35.8858 9.23278 35.825 9.37868C35.7641 9.52458 35.7885 9.53671 35.5454 9.59753C35.3022 9.65835 35.2293 9.60966 35.2415 9.81638C35.2536 10.0231 35.2293 10.0474 35.1442 10.1568C35.0591 10.2662 35.1077 10.3635 35.205 10.4121C35.3023 10.4607 35.4116 10.3756 35.4116 10.5215C35.4116 10.6674 35.594 10.7768 35.8371 10.7768C36.0802 10.7768 36.1896 10.8377 36.3355 11.02C36.4814 11.2023 36.2747 11.2145 36.5179 11.4454C36.761 11.6764 36.9921 11.7858 37.0285 11.5792C37.065 11.3726 37.0285 11.3239 37.065 11.0808C37.1015 10.8377 37.3325 10.8133 37.2109 10.5945C37.0894 10.3756 36.907 10.2784 37.0771 10.1568C37.2474 10.0352 37.0407 9.9229 37.3325 9.86357C37.6243 9.80425 37.8188 9.75556 37.9403 9.9744C38.0619 10.1933 37.9282 10.3391 38.0497 10.4364C38.1713 10.5337 38.5482 10.3878 38.6211 10.3027C38.6941 10.2176 38.9007 10.2297 38.9736 10.5458C39.0466 10.8618 39.0952 10.947 39.2046 10.9835C39.314 11.02 39.314 11.0929 39.4478 11.2145C39.5815 11.336 39.8368 11.5305 39.4478 11.567C39.0588 11.6035 38.7427 11.5549 38.5968 11.6885C38.4509 11.8222 38.4387 11.725 38.536 11.9074C38.6332 12.0898 38.5603 11.9682 38.6332 12.1992C38.7062 12.4302 39.0709 12.4302 38.8034 12.5882C38.5359 12.7462 38.5846 12.7827 38.4265 12.7341C38.2685 12.6855 38.232 12.3364 38.0497 12.6204C37.8673 12.9043 37.8916 13.0138 37.7336 13.0988C37.5756 13.1839 37.5634 13.0137 37.4175 13.2812C37.2716 13.5487 37.5026 13.573 37.1744 13.8769C36.8462 14.1808 36.6881 14.035 36.6638 14.2903C36.6395 14.5456 36.7976 14.8495 36.7124 14.9103C36.6273 14.9712 36.6395 14.9589 36.5422 14.7888C36.4449 14.6185 36.4936 14.5213 36.1532 14.497C35.8128 14.4726 35.8372 14.3876 35.7034 14.5335C35.5696 14.6794 35.752 14.728 35.3751 14.6794C34.9983 14.6308 34.9497 14.1809 34.8767 14.7037C34.8038 15.2265 34.7916 15.2872 34.9132 15.4331C35.0347 15.579 35.363 15.9315 35.5089 15.7735C35.6548 15.6155 35.4724 15.421 35.7521 15.4817C36.0317 15.5425 36.1046 15.4696 36.056 15.6276C36.0074 15.7856 35.6306 15.81 35.9345 15.9559C36.2384 16.1018 36.4937 15.9315 36.518 16.1626C36.5423 16.3936 36.4815 16.4544 36.4936 16.5881C36.5058 16.7218 36.5666 16.8191 36.8462 16.8191C37.1257 16.8191 37.1136 16.7096 37.1866 16.8555C37.2595 17.0014 37.4905 16.9285 37.5878 16.7218C37.6851 16.515 37.758 16.2841 37.9038 16.5273C38.0497 16.7704 38.074 16.8191 38.2199 16.7218C38.3658 16.6245 38.3658 16.6245 38.3658 16.6245C38.3658 16.6245 38.5238 16.4786 38.6576 16.6001C38.7914 16.7217 39.0101 16.588 39.0588 16.7582C39.1074 16.9283 39.0345 16.9527 39.2412 17.0135C39.4479 17.0743 39.691 16.977 39.8126 17.1472C39.9341 17.3174 39.6058 17.208 39.9585 17.4146C40.311 17.6213 40.4204 17.6456 40.3962 17.7794C40.3718 17.9131 40.4691 17.9374 40.7852 18.0103C41.1012 18.0833 41.0526 18.0468 41.3079 18.2413C41.5633 18.4358 41.7699 18.3507 41.8551 18.448C41.9401 18.5453 42.086 18.5696 41.9645 18.837C41.8429 19.1045 41.7214 19.0437 41.6241 19.2504C41.5268 19.4571 41.4417 19.5057 41.4661 19.8704C41.4904 20.2352 41.5025 20.1987 41.4296 20.3811C41.3566 20.5635 41.0892 20.5877 40.8703 20.7215C40.6515 20.8553 40.6394 20.7458 40.4935 21.1105C40.3476 21.4752 40.4326 21.2807 40.3111 21.5968C40.1895 21.9129 40.3597 21.7548 40.0072 21.9372C39.6546 22.1196 39.5209 21.9615 39.4844 22.071C39.4479 22.1804 39.6911 22.0953 39.4358 22.3263C39.1805 22.5573 39.071 22.6181 38.913 22.7153C38.755 22.8125 38.6577 22.922 38.6942 23.1286C38.7306 23.3353 38.913 23.3231 38.7063 23.5176C38.4996 23.7121 38.4145 23.5176 38.3538 23.8337C38.2929 24.1498 38.2322 24.0039 38.2929 24.3321C38.3538 24.6604 38.6698 24.6604 38.378 24.8428C38.0862 25.0251 37.7702 25.1102 37.5878 24.6726C37.4054 24.2349 37.4054 24.0648 37.4054 23.773C37.4054 23.4812 37.3689 23.7 37.5148 23.2016C37.6607 22.7032 37.4175 22.8733 37.5392 22.3263C37.6607 21.7792 37.6365 21.1957 37.758 20.7944C37.8796 20.3932 38.147 20.5026 37.8796 20.138C37.6121 19.7732 37.5635 19.8341 37.3326 19.5909C37.1016 19.3478 37.2475 19.3964 37.1137 19.1046C36.9799 18.8128 36.8949 18.8371 36.7854 18.6183C36.676 18.3994 36.6152 18.4724 36.7246 18.1077C36.834 17.743 36.5909 17.7552 36.834 17.6458C37.0771 17.5363 37.0408 17.2689 37.0043 17.1716C36.9678 17.0743 37.1867 17.0378 36.8463 16.9892C36.5059 16.9406 36.4086 17.05 36.287 16.8433C36.1655 16.6366 36.2627 16.6002 36.0074 16.4786C35.7521 16.357 35.4725 16.357 35.3752 16.2597C35.2779 16.1624 35.2779 16.1624 35.2779 16.1624C35.2779 16.1624 35.4603 16.0895 35.047 16.0409C34.6336 15.9923 34.3297 16.0409 34.123 15.7491C33.9162 15.4573 33.9649 15.6275 33.9162 15.3601C33.8676 15.0926 33.8068 15.0926 33.6123 14.9224C33.4178 14.7522 33.4178 14.6549 33.2354 14.582C33.0531 14.509 33.0166 14.5334 33.0166 14.5699C33.0166 14.6063 33.0045 14.7522 33.1746 14.8859C33.3449 15.0197 33.357 15.1412 33.357 15.202C33.357 15.2628 33.126 15.3357 33.126 15.3357C33.126 15.3357 33.126 15.2628 33.0531 15.0926C32.9801 14.9224 32.9558 14.8373 32.8099 14.6307C32.664 14.424 32.6275 14.3997 32.6275 14.3997C32.6275 14.3997 32.4573 14.1322 32.1656 13.7797C31.8738 13.4272 31.7887 13.6459 31.7887 13.2448C31.7887 12.8436 31.8616 12.8436 31.7887 12.564C31.7157 12.2844 31.5456 12.1507 31.6914 12.1021C31.8373 12.0535 31.9224 11.9805 31.6549 11.7495C31.3875 11.5186 31.2902 11.6401 31.193 11.3241C31.0957 11.008 31.3024 11.0323 30.9012 10.8864C30.4999 10.7405 30.4513 10.6189 30.269 10.5338C30.0866 10.4487 29.9772 10.4001 29.9772 10.4001C29.9772 10.4001 30.0136 10.3637 29.5759 10.3272C29.1382 10.2907 29.1869 10.0841 28.8587 10.2178C28.5304 10.3515 28.4818 10.3758 28.4818 10.3758C28.4818 10.3758 28.6642 10.157 28.3481 10.1813C28.0321 10.2056 28.1049 10.2786 28.0928 10.4245C28.0807 10.5704 28.1293 10.7405 27.9104 10.8257C27.6916 10.9108 27.3755 11.1418 27.4971 10.8987C27.6186 10.6555 27.9225 10.4853 27.8131 10.4245C27.7037 10.3637 27.4727 10.5582 27.4484 10.3637C27.424 10.1692 27.4727 10.0719 27.2174 10.0597C26.9621 10.0476 26.7554 9.93819 26.9499 9.85303C27.1444 9.76795 27.3268 9.80442 27.3876 9.5977C27.4485 9.39099 27.8983 9.34238 27.3998 9.3546C26.9013 9.36673 26.6825 9.36673 26.7433 9.26952C26.8041 9.17223 26.7798 8.98994 27.1323 9.03854C27.485 9.08688 27.485 8.94099 27.3999 8.84378Z" fill="#9FA6A9"/>
</g>
<path d="M7.462 19.2034C7.40848 19.0831 7.34168 18.9828 7.25476 18.9026C7.16115 18.8224 7.06087 18.7622 6.94046 18.7154C6.82682 18.6752 6.69973 18.6553 6.57272 18.6553C6.43895 18.6553 6.31195 18.6753 6.19831 18.7154C6.18495 18.7221 6.16491 18.7287 6.15146 18.7355C6.05786 18.7824 5.96426 18.8357 5.89069 18.9027C5.79709 18.9829 5.7302 19.0832 5.67668 19.2035C5.62315 19.3173 5.59644 19.4576 5.59644 19.6048V20.9555C5.59644 21.1093 5.62315 21.2429 5.67668 21.3633C5.73012 21.4837 5.797 21.5773 5.89069 21.6642C5.97762 21.7445 6.08458 21.8046 6.19822 21.8446C6.31187 21.8848 6.43895 21.9049 6.57264 21.9049C6.63284 21.9049 6.69973 21.8982 6.75984 21.8915C6.82005 21.8781 6.88685 21.8647 6.94037 21.8446C7.06078 21.8046 7.16106 21.7445 7.25467 21.6642C7.34159 21.5773 7.40848 21.4837 7.46191 21.3633C7.51544 21.2429 7.54216 21.1093 7.54216 20.9555V19.6048C7.54225 19.4575 7.51553 19.3171 7.462 19.2034ZM6.9605 20.9487C6.9605 21.0891 6.92042 21.1893 6.85353 21.2697C6.78665 21.3366 6.70641 21.3765 6.60612 21.3833H6.57272C6.4524 21.3833 6.35871 21.3431 6.28523 21.2697C6.21835 21.1893 6.17827 21.0891 6.17827 20.9487V19.6181C6.17827 19.5913 6.17827 19.5713 6.18495 19.5512C6.18495 19.5446 6.19163 19.5379 6.19163 19.5379C6.19831 19.4377 6.23171 19.364 6.28523 19.2971C6.29859 19.2839 6.31195 19.2704 6.32531 19.2637C6.3922 19.2035 6.47244 19.1834 6.57272 19.1834C6.68645 19.1834 6.77997 19.2169 6.85362 19.2971C6.92051 19.3774 6.96059 19.4843 6.96059 19.6181L6.9605 20.9487Z" fill="#CECECF"/>
<path d="M9.01314 18.6816L8.3645 19.25V19.8785L9.01314 19.3102V21.8778H9.60156V18.6816H9.01314Z" fill="#CECECF"/>
<path d="M10.6782 18.6816V19.7114H11.2333V19.2099H12.0824L11.0393 21.8778H11.6745L12.7109 19.2099V18.6816H10.6782Z" fill="#CECECF"/>
<path d="M15.1183 19.2034C15.0647 19.0831 14.9979 18.9828 14.911 18.9026C14.8174 18.8224 14.7171 18.7622 14.5967 18.7154C14.4764 18.6752 14.356 18.6553 14.229 18.6553C14.0952 18.6553 13.9682 18.6753 13.8546 18.7154C13.7342 18.7622 13.6339 18.8224 13.5469 18.9026C13.4533 18.9828 13.3798 19.0831 13.3329 19.2034C13.2795 19.3172 13.2527 19.4575 13.2527 19.6047V20.9554C13.2527 21.1092 13.2795 21.2429 13.3329 21.3632C13.3798 21.4836 13.4533 21.5772 13.5469 21.6641C13.6339 21.7444 13.7341 21.8045 13.8546 21.8446C13.9682 21.8847 14.0953 21.9048 14.229 21.9048C14.356 21.9048 14.4764 21.8847 14.5967 21.8446C14.717 21.8045 14.8174 21.7444 14.911 21.6641C14.9979 21.5772 15.0648 21.4836 15.1183 21.3632C15.1717 21.2429 15.1985 21.1092 15.1985 20.9554V19.6047C15.1984 19.4575 15.1717 19.3171 15.1183 19.2034ZM14.6101 20.9487C14.6101 21.0891 14.5767 21.1893 14.5098 21.2697C14.4362 21.3431 14.3426 21.3833 14.229 21.3833C14.1087 21.3833 14.015 21.3431 13.9415 21.2697C13.8747 21.1893 13.8345 21.0891 13.8345 20.9487V19.6181C13.8345 19.4843 13.8747 19.3773 13.9415 19.2971C14.015 19.2169 14.1087 19.1834 14.229 19.1834C14.3426 19.1834 14.4362 19.2169 14.5098 19.2971C14.5767 19.3774 14.6101 19.4843 14.6101 19.6181V20.9487Z" fill="#CECECF"/>
<path d="M20.0125 20.5142C19.9724 20.3939 19.9055 20.2936 19.8253 20.2134C19.7451 20.1331 19.6581 20.073 19.5579 20.0262C19.4576 19.9861 19.3505 19.9659 19.2436 19.9659C19.2035 19.9659 19.1633 19.9659 19.1232 19.9726C19.0832 19.9793 19.043 19.986 19.0096 20.006L19.2302 19.5715L19.6715 18.6821H19.0363L18.9694 18.8159V18.8226L18.8892 18.9831L18.361 20.0662C18.3543 20.0796 18.3476 20.093 18.3409 20.1064C18.274 20.2401 18.2206 20.3671 18.1737 20.4942C18.1202 20.6279 18.0935 20.7751 18.0935 20.9221C18.0935 21.0759 18.1135 21.2163 18.1671 21.3433C18.2206 21.4637 18.2874 21.5707 18.3811 21.6509C18.448 21.7178 18.5148 21.7646 18.6017 21.8047H18.6084C18.6352 21.8181 18.6686 21.8315 18.6953 21.8448C18.8156 21.885 18.9494 21.905 19.0898 21.905C19.2302 21.905 19.3573 21.885 19.4776 21.8382C19.6046 21.798 19.705 21.7312 19.7986 21.6442L19.8053 21.6375C19.8922 21.5506 19.9591 21.4571 20.0058 21.33C20.0594 21.2096 20.0861 21.0692 20.0861 20.9088C20.0861 20.7616 20.0594 20.6345 20.0125 20.5142ZM19.0898 20.4474C19.2168 20.4474 19.3171 20.4875 19.3908 20.5744C19.4643 20.6547 19.5044 20.7751 19.5044 20.9154C19.5044 21.0625 19.4643 21.1828 19.3841 21.2631C19.3038 21.3433 19.2102 21.3834 19.0898 21.3834C18.9695 21.3834 18.8691 21.3433 18.7889 21.2631C18.7153 21.1828 18.6753 21.0625 18.6753 20.9154C18.6753 20.7683 18.7153 20.648 18.7889 20.5677C18.8691 20.4875 18.9694 20.4474 19.0898 20.4474Z" fill="#CECECF"/>
<path d="M22.5936 20.3536C22.5668 20.2133 22.4865 20.0728 22.3595 19.9526C22.2926 19.8856 22.2125 19.8322 22.1121 19.792C22.0118 19.7519 21.8982 19.7319 21.7577 19.7319C21.6508 19.7319 21.5572 19.752 21.4702 19.7854C21.3833 19.8188 21.3231 19.8522 21.283 19.8924V19.2104H22.5735V18.6821H20.7481V20.4875H21.283C21.3031 20.4274 21.3432 20.3671 21.4033 20.3136C21.4434 20.2736 21.4903 20.2468 21.5572 20.2401C21.5906 20.2267 21.6307 20.2267 21.6708 20.2267C21.8178 20.2267 21.9182 20.2802 21.9717 20.3738C22.0319 20.474 22.0653 20.6146 22.0653 20.8017C22.0653 20.902 22.0519 20.9956 22.0384 21.0826C22.0384 21.096 22.0318 21.1026 22.0251 21.1094C22.0251 21.1161 22.0251 21.1161 22.0251 21.1161C22.005 21.1829 21.9783 21.2364 21.9382 21.2766C21.8646 21.35 21.7777 21.3835 21.6574 21.3835C21.537 21.3835 21.4433 21.35 21.3832 21.2766C21.323 21.2096 21.2829 21.1161 21.2696 20.989H20.6812C20.6945 21.1027 20.7146 21.2163 20.748 21.33C20.7814 21.4504 20.8416 21.5506 20.9419 21.651C21.0088 21.7246 21.1091 21.7781 21.2295 21.8315C21.3431 21.885 21.4903 21.9051 21.6574 21.9051C21.7176 21.9051 21.7644 21.9051 21.8113 21.8917H21.8179C21.9182 21.885 22.0051 21.8649 22.0854 21.8316C22.199 21.7782 22.2926 21.7179 22.3662 21.6511C22.4799 21.5307 22.5534 21.4037 22.5936 21.27C22.627 21.1362 22.6471 20.9824 22.6471 20.8019C22.6471 20.6479 22.627 20.5008 22.5936 20.3536Z" fill="#CECECF"/>
<path d="M23.2019 18.6816V19.7114H23.7569V19.2099H24.6061L23.5697 21.8778H24.1982L25.2413 19.2099V18.6816H23.2019Z" fill="#CECECF"/>
<path d="M27.675 19.2236C27.6282 19.0966 27.5547 18.9963 27.4678 18.9094C27.3742 18.8291 27.2739 18.7622 27.1469 18.7222C27.0266 18.6753 26.8995 18.6553 26.759 18.6553C26.6187 18.6553 26.4849 18.6753 26.3646 18.7222C26.2442 18.769 26.1372 18.8358 26.0436 18.916C25.9567 19.0029 25.8898 19.11 25.8363 19.2303C25.7829 19.3573 25.7561 19.4977 25.7561 19.6515C25.7561 19.8053 25.7829 19.9391 25.8297 20.0526C25.8765 20.1664 25.9434 20.2667 26.0169 20.3468C26.0971 20.4271 26.1907 20.4939 26.291 20.534C26.3913 20.5809 26.4983 20.601 26.6053 20.601C26.6454 20.601 26.6855 20.601 26.7256 20.5943C26.7657 20.5876 26.8059 20.5742 26.8393 20.5608L26.1773 21.878H26.8125L27.4878 20.5007C27.5614 20.3536 27.6216 20.2065 27.675 20.0728C27.7285 19.9324 27.7553 19.792 27.7553 19.6448C27.7553 19.4843 27.7285 19.3439 27.675 19.2236ZM27.0532 19.9925C26.973 20.0728 26.8793 20.1129 26.759 20.1129C26.632 20.1129 26.5317 20.0728 26.4581 19.9925C26.3778 19.9056 26.3444 19.7919 26.3444 19.6515C26.3444 19.4977 26.3845 19.3841 26.4581 19.3038C26.5383 19.2236 26.6386 19.1834 26.759 19.1834C26.8793 19.1834 26.973 19.2236 27.0532 19.3038C27.1334 19.3841 27.1668 19.4977 27.1668 19.6515C27.1669 19.7986 27.1334 19.9123 27.0532 19.9925Z" fill="#CECECF"/>
<path d="M31.5066 18.6816L30.8513 19.25V19.8785L31.5066 19.3102V21.8778H32.0884V18.6816H31.5066Z" fill="#CECECF"/>
<path d="M33.1648 18.6816V19.7114H33.7264V19.2099H34.5689L33.5325 21.8778H34.1677L35.2041 19.2099V18.6816H33.1648Z" fill="#CECECF"/>
<path d="M36.6084 18.6816L35.9597 19.25V19.8785L36.6084 19.3102V21.8778H37.1967V18.6816H36.6084Z" fill="#CECECF"/>
<path d="M40.1922 19.2236C40.1454 19.0966 40.0719 18.9963 39.9849 18.9094C39.8913 18.8291 39.791 18.7622 39.664 18.7222C39.5437 18.6753 39.4166 18.6553 39.2762 18.6553C39.1358 18.6553 39.0021 18.6753 38.8817 18.7222C38.7613 18.769 38.6544 18.8358 38.5607 18.916C38.4738 19.0029 38.4002 19.11 38.3534 19.2303C38.2999 19.3573 38.2732 19.4977 38.2732 19.6515C38.2732 19.8053 38.2999 19.9391 38.3468 20.0526C38.3936 20.1664 38.4604 20.2667 38.534 20.3468C38.6142 20.4271 38.7011 20.4939 38.8081 20.534C38.9084 20.5809 39.0153 20.601 39.1223 20.601C39.1624 20.601 39.2025 20.601 39.2426 20.5943C39.2828 20.5876 39.3229 20.5742 39.3564 20.5608L38.6944 21.878H39.3295L40.0049 20.5007C40.0785 20.3536 40.1387 20.2065 40.1921 20.0728C40.2455 19.9324 40.2724 19.792 40.2724 19.6448C40.2724 19.4843 40.2457 19.3439 40.1922 19.2236ZM39.5704 19.9925C39.4901 20.0728 39.3965 20.1129 39.2762 20.1129C39.1492 20.1129 39.0488 20.0728 38.9753 19.9925C38.895 19.9056 38.8616 19.7919 38.8616 19.6515C38.8616 19.4977 38.9017 19.3841 38.9753 19.3038C39.0555 19.2236 39.1558 19.1834 39.2762 19.1834C39.3965 19.1834 39.4901 19.2236 39.5704 19.3038C39.6506 19.3841 39.684 19.4977 39.684 19.6515C39.684 19.7986 39.6506 19.9123 39.5704 19.9925Z" fill="#CECECF"/>
<path d="M28.4241 27.1004C28.384 27.0135 28.3304 26.9399 28.2702 26.8797C28.2034 26.8196 28.1298 26.7728 28.0429 26.7461C27.9559 26.7126 27.8623 26.6992 27.7687 26.6992C27.6685 26.6992 27.5815 26.7126 27.4946 26.7461C27.4077 26.7729 27.3341 26.8196 27.2672 26.8797C27.2004 26.9399 27.1469 27.0135 27.1067 27.1004C27.0733 27.1874 27.0532 27.2876 27.0532 27.3946V28.3842C27.0532 28.4979 27.0733 28.5982 27.1067 28.6851C27.1469 28.772 27.2004 28.8456 27.2672 28.9057C27.3341 28.9659 27.4077 29.0127 27.4946 29.0394C27.5815 29.0729 27.6685 29.0862 27.7687 29.0862C27.8623 29.0862 27.9559 29.0729 28.0429 29.0394C28.1298 29.0127 28.2034 28.9659 28.2702 28.9057C28.3304 28.8456 28.3839 28.772 28.4241 28.6851C28.4642 28.5982 28.4776 28.4979 28.4776 28.3842V27.3946C28.4776 27.2877 28.4642 27.1875 28.4241 27.1004ZM28.0496 28.3843C28.0496 28.4845 28.0229 28.5581 27.9761 28.6183C27.9225 28.6717 27.8558 28.6985 27.7688 28.6985C27.6819 28.6985 27.615 28.6717 27.5616 28.6183C27.5081 28.5581 27.4813 28.4845 27.4813 28.3843V27.4014C27.4813 27.3079 27.5081 27.2275 27.5616 27.1673C27.6151 27.1139 27.6819 27.0871 27.7688 27.0871C27.8558 27.0871 27.9226 27.1139 27.9761 27.1673C28.0229 27.2275 28.0496 27.3078 28.0496 27.4014V28.3843Z" fill="#CECECF"/>
<path d="M30.3364 27.9496C30.3163 27.8427 30.2562 27.7423 30.1626 27.6487C30.1157 27.6019 30.0556 27.5618 29.9821 27.535C29.9085 27.5016 29.8216 27.4882 29.7213 27.4882C29.6477 27.4882 29.5742 27.5016 29.514 27.5283C29.4471 27.5483 29.4004 27.5751 29.3737 27.6086V27.1004H30.3232V26.7192H28.9791V28.0431H29.3737C29.387 27.9964 29.4205 27.9563 29.4606 27.9161C29.5074 27.876 29.5676 27.8493 29.6612 27.8493C29.7614 27.8493 29.835 27.8894 29.8818 27.9631C29.9219 28.0365 29.942 28.1369 29.942 28.2773C29.942 28.3508 29.942 28.4176 29.9286 28.4779C29.9153 28.538 29.8885 28.5849 29.8551 28.625C29.8015 28.6784 29.7347 28.6984 29.6478 28.6984C29.5609 28.6984 29.4873 28.6784 29.4472 28.625C29.4004 28.5714 29.3737 28.5046 29.3603 28.411H28.9324C28.9391 28.4979 28.9524 28.5781 28.9792 28.665C29.0059 28.7453 29.0528 28.8255 29.1263 28.899C29.1731 28.9459 29.2467 28.9926 29.3336 29.0327C29.4205 29.0662 29.5275 29.0862 29.6478 29.0862C29.7681 29.0862 29.8752 29.0662 29.9621 29.0327C30.0423 28.9926 30.1159 28.9459 30.1693 28.8923C30.2496 28.8122 30.3097 28.7185 30.3365 28.6183C30.3632 28.5247 30.3766 28.4043 30.3766 28.2773C30.3765 28.1636 30.3631 28.0566 30.3364 27.9496Z" fill="#CECECF"/>
<path d="M31.56 26.4722L30.6172 29.3139H31.0183L31.9611 26.4722H31.56Z" fill="#CECECF"/>
<path d="M32.8503 26.7192L32.3689 27.1339V27.5952L32.8503 27.1807V29.0662H33.2782V26.7192H32.8503Z" fill="#CECECF"/>
<path d="M34.7227 26.7192L34.2412 27.1339V27.5952L34.7227 27.1807V29.0662H35.1506V26.7192H34.7227Z" fill="#CECECF"/>
<path d="M35.9731 27.9229V28.324H36.9894V27.9229H35.9731Z" fill="#CECECF"/>
<path d="M38.8217 27.1004C38.7816 27.0135 38.7281 26.9399 38.6612 26.8797C38.6011 26.8196 38.5208 26.7728 38.4339 26.7461C38.347 26.7126 38.26 26.6992 38.1664 26.6992C38.0662 26.6992 37.9792 26.7126 37.8923 26.7461C37.8054 26.7729 37.7318 26.8196 37.6649 26.8797C37.5981 26.9399 37.5446 27.0135 37.5045 27.1004C37.4644 27.1874 37.4509 27.2876 37.4509 27.3946V28.3842C37.4509 28.4979 37.4643 28.5982 37.5045 28.6851C37.5445 28.772 37.5981 28.8456 37.6649 28.9057C37.7318 28.9659 37.8054 29.0127 37.8923 29.0394C37.9792 29.0729 38.0662 29.0862 38.1664 29.0862C38.26 29.0862 38.347 29.0729 38.4339 29.0394C38.5208 29.0127 38.6011 28.9659 38.6612 28.9057C38.7281 28.8456 38.7816 28.772 38.8217 28.6851C38.8551 28.5982 38.8751 28.4979 38.8751 28.3842V27.3946C38.8751 27.2877 38.8551 27.1875 38.8217 27.1004ZM38.4472 28.3843C38.4472 28.4845 38.4204 28.5581 38.3669 28.6183C38.3202 28.6717 38.2466 28.6985 38.1664 28.6985C38.0794 28.6985 38.0059 28.6717 37.9591 28.6183C37.9056 28.5581 37.8789 28.4845 37.8789 28.3843V27.4014C37.8789 27.3079 37.9056 27.2275 37.9591 27.1673C38.006 27.1139 38.0794 27.0871 38.1664 27.0871C38.2466 27.0871 38.3202 27.1139 38.3669 27.1673C38.4204 27.2275 38.4472 27.3078 38.4472 27.4014V28.3843Z" fill="#CECECF"/>
<path d="M40.6937 27.1004C40.6537 27.0135 40.6001 26.9399 40.5399 26.8797C40.473 26.8196 40.3996 26.7728 40.3126 26.7461C40.2257 26.7126 40.1321 26.6992 40.0384 26.6992C39.9381 26.6992 39.8512 26.7126 39.7643 26.7461C39.6774 26.7729 39.6038 26.8196 39.5369 26.8797C39.4701 26.9399 39.4166 27.0135 39.3764 27.1004C39.343 27.1874 39.323 27.2876 39.323 27.3946V28.3842C39.323 28.4979 39.343 28.5982 39.3764 28.6851C39.4165 28.772 39.47 28.8456 39.5369 28.9057C39.6038 28.9659 39.6774 29.0127 39.7643 29.0394C39.8512 29.0729 39.9381 29.0862 40.0384 29.0862C40.132 29.0862 40.2256 29.0729 40.3126 29.0394C40.3996 29.0127 40.4731 28.9659 40.5399 28.9057C40.6001 28.8456 40.6537 28.772 40.6937 28.6851C40.7338 28.5982 40.7472 28.4979 40.7472 28.3842V27.3946C40.7473 27.2877 40.7339 27.1875 40.6937 27.1004ZM40.3193 28.3843C40.3193 28.4845 40.2925 28.5581 40.2458 28.6183C40.1923 28.6717 40.1254 28.6985 40.0385 28.6985C39.9517 28.6985 39.8847 28.6717 39.8313 28.6183C39.7778 28.5581 39.751 28.4845 39.751 28.3843V27.4014C39.751 27.3079 39.7778 27.2275 39.8313 27.1673C39.8848 27.1139 39.9517 27.0871 40.0385 27.0871C40.1254 27.0871 40.1923 27.1139 40.2458 27.1673C40.2926 27.2275 40.3193 27.3078 40.3193 27.4014V28.3843Z" fill="#CECECF"/>
<path d="M5.93091 22.7007V22.9147H6.25188V23.9244H6.49262V22.9147H6.81359V22.7007H5.93091Z" fill="#CECECF"/>
<path d="M7.89667 23.0218C7.88331 22.9818 7.87654 22.9484 7.85659 22.9149C7.84323 22.8814 7.81643 22.8479 7.78303 22.8146C7.74295 22.7745 7.6961 22.741 7.64267 22.721C7.58914 22.7009 7.52894 22.6875 7.46214 22.6875C7.38857 22.6875 7.32837 22.7009 7.27493 22.721C7.22149 22.741 7.17465 22.7745 7.13457 22.8146C7.10117 22.848 7.07436 22.8815 7.06101 22.9149C7.04088 22.9484 7.0342 22.9818 7.02093 23.0218C7.01425 23.062 7.01425 23.1088 7.00757 23.1556V23.4698C7.01425 23.5166 7.01425 23.5567 7.02093 23.5969C7.03429 23.637 7.04097 23.6771 7.06101 23.7105C7.07436 23.7374 7.10108 23.7708 7.13457 23.8041C7.17465 23.8443 7.22149 23.8777 7.27493 23.8978C7.32846 23.9246 7.38866 23.9312 7.46214 23.9312C7.52902 23.9312 7.58923 23.9246 7.64267 23.8978C7.6961 23.8777 7.74295 23.8443 7.78303 23.8041C7.81643 23.7708 7.84323 23.7373 7.85659 23.7105C7.87663 23.6771 7.88331 23.637 7.89667 23.5969C7.90335 23.5567 7.91003 23.5166 7.91003 23.4698V23.1556C7.91003 23.1088 7.90335 23.062 7.89667 23.0218ZM7.6693 23.4565C7.6693 23.4966 7.66262 23.5233 7.65594 23.5501C7.65594 23.5769 7.64926 23.5969 7.64258 23.6103C7.6359 23.6236 7.62245 23.637 7.60909 23.6503C7.59573 23.6705 7.57569 23.6904 7.54897 23.6971C7.52226 23.7105 7.49545 23.7171 7.46205 23.7171C7.42865 23.7171 7.39525 23.7105 7.36845 23.6971C7.34841 23.6904 7.3216 23.6704 7.30165 23.6503C7.29497 23.637 7.28152 23.6236 7.27484 23.6103C7.26816 23.5969 7.26148 23.5768 7.26148 23.5501C7.2548 23.5233 7.24812 23.4966 7.24812 23.4565V23.1623C7.24812 23.1289 7.2548 23.0954 7.26148 23.0687C7.26148 23.0419 7.26816 23.0218 7.27484 23.0086C7.28152 22.9952 7.29488 22.9818 7.30165 22.9684C7.32169 22.9484 7.3485 22.935 7.36845 22.9216C7.39525 22.9083 7.42865 22.9016 7.46205 22.9016C7.49545 22.9016 7.52226 22.9083 7.54897 22.9216C7.57569 22.935 7.59582 22.9484 7.60909 22.9684C7.62245 22.9818 7.6359 22.9952 7.64258 23.0086C7.64926 23.0218 7.65594 23.042 7.65594 23.0687C7.66262 23.0955 7.6693 23.1289 7.6693 23.1623V23.4565Z" fill="#CECECF"/>
<path d="M9.04671 22.9348C9.03335 22.888 9.00663 22.8478 8.96646 22.8144C8.93307 22.7743 8.8929 22.7476 8.83946 22.7275C8.79262 22.7074 8.7325 22.7007 8.67229 22.7007H8.19751V23.9244H8.43824V23.463H8.67221C8.73241 23.463 8.79253 23.4497 8.83938 23.4296C8.8929 23.4094 8.93298 23.3827 8.96638 23.3492C9.00654 23.3158 9.03326 23.2758 9.04662 23.2289C9.06675 23.1821 9.07334 23.1287 9.07334 23.0819C9.07343 23.0284 9.06684 22.9817 9.04671 22.9348ZM8.79262 23.2023C8.75922 23.2291 8.71237 23.2491 8.65885 23.2491H8.43824V22.9148H8.65885C8.71237 22.9148 8.75913 22.9281 8.79262 22.955C8.81934 22.9884 8.83946 23.0284 8.83946 23.082C8.83946 23.1288 8.81934 23.1689 8.79262 23.2023Z" fill="#CECECF"/>
<path d="M10.1234 22.9147V22.7007H9.32104V23.9244H10.1234V23.7104H9.56178V23.4095H10.0432V23.1955H9.56178V22.9147H10.1234Z" fill="#CECECF"/>
<path d="M10.9525 23.6707C10.9191 23.7041 10.8723 23.7175 10.8121 23.7175C10.7788 23.7175 10.7519 23.7108 10.7252 23.7041C10.6985 23.6907 10.6784 23.6774 10.6583 23.6573C10.6517 23.644 10.6383 23.6306 10.6316 23.6106C10.6249 23.5972 10.6183 23.5771 10.6116 23.5504C10.6116 23.5236 10.6049 23.4969 10.6049 23.4569C10.6049 23.4167 10.5982 23.3698 10.5982 23.3097C10.5982 23.2496 10.6049 23.2028 10.6049 23.1627C10.6049 23.1293 10.6116 23.0958 10.6116 23.0691C10.6183 23.0423 10.6249 23.0222 10.6316 23.009C10.6383 22.9956 10.6517 22.9755 10.6583 22.9688C10.6784 22.9488 10.6985 22.9287 10.7252 22.922C10.7519 22.9087 10.7788 22.902 10.8121 22.902C10.8723 22.902 10.9191 22.9154 10.9525 22.9488C10.986 22.9822 11.006 23.0223 11.0194 23.0758H11.2601C11.2401 22.9488 11.1866 22.8485 11.1063 22.7884C11.0261 22.7214 10.9258 22.688 10.8121 22.688C10.7453 22.688 10.6784 22.7013 10.6249 22.7215C10.5781 22.7415 10.5247 22.775 10.4846 22.8151C10.4578 22.8485 10.4311 22.882 10.411 22.9154C10.3977 22.9488 10.3843 22.9822 10.3776 23.0223C10.3709 23.0625 10.3643 23.1093 10.3643 23.1561V23.4703C10.3643 23.5171 10.3709 23.5572 10.3776 23.5974C10.3843 23.6375 10.3977 23.6776 10.411 23.711C10.4311 23.7378 10.4579 23.7712 10.4846 23.8046C10.5247 23.8448 10.5782 23.8782 10.6249 23.8982C10.6785 23.9251 10.7453 23.9317 10.8121 23.9317C10.9258 23.9317 11.0262 23.8982 11.1063 23.8381C11.1866 23.7712 11.2401 23.6776 11.2601 23.5439H11.0194C11.006 23.5971 10.986 23.6372 10.9525 23.6707Z" fill="#CECECF"/>
<path d="M12.3701 23.1556C12.3701 23.1088 12.3634 23.062 12.3567 23.0218C12.35 22.9818 12.3366 22.9484 12.3166 22.9149C12.3033 22.8814 12.2766 22.8479 12.2498 22.8146C12.2097 22.7745 12.1628 22.741 12.1094 22.721C12.0559 22.7009 11.9957 22.6875 11.9222 22.6875C11.8486 22.6875 11.7884 22.7009 11.735 22.721C11.6815 22.741 11.6347 22.7745 11.5945 22.8146C11.5611 22.848 11.541 22.8815 11.521 22.9149C11.5076 22.9484 11.4942 22.9818 11.4876 23.0218C11.4809 23.062 11.4742 23.1088 11.4742 23.1556C11.4742 23.2024 11.4675 23.2492 11.4675 23.3094C11.4675 23.3695 11.4742 23.4231 11.4742 23.4699C11.4742 23.5167 11.4809 23.5568 11.4876 23.597C11.4942 23.6371 11.5076 23.6772 11.521 23.7106C11.541 23.7374 11.561 23.7708 11.5945 23.8042C11.6346 23.8444 11.6815 23.8778 11.735 23.8978C11.7884 23.9246 11.8486 23.9313 11.9222 23.9313C11.9958 23.9313 12.056 23.9246 12.1094 23.8978C12.1628 23.8778 12.2097 23.8444 12.2498 23.8042C12.2766 23.7708 12.3033 23.7374 12.3166 23.7106C12.3367 23.6772 12.35 23.6371 12.3567 23.597C12.3634 23.5568 12.3701 23.5167 12.3701 23.4699C12.3701 23.4231 12.3768 23.3696 12.3768 23.3094C12.3768 23.2492 12.3701 23.2024 12.3701 23.1556ZM12.1293 23.4565C12.1293 23.4966 12.1227 23.5233 12.1227 23.5501C12.116 23.5769 12.1093 23.5969 12.1026 23.6103C12.0959 23.6236 12.0893 23.637 12.0759 23.6503C12.0558 23.6705 12.0358 23.6904 12.009 23.6971C11.9823 23.7105 11.9555 23.7171 11.9221 23.7171C11.8887 23.7171 11.862 23.7105 11.8352 23.6971C11.8085 23.6904 11.7883 23.6704 11.7683 23.6503C11.7549 23.637 11.7483 23.6236 11.7416 23.6103C11.7282 23.5969 11.7282 23.5768 11.7214 23.5501C11.7148 23.5233 11.7148 23.4966 11.7081 23.4565V23.1623C11.7148 23.1289 11.7148 23.0954 11.7214 23.0687C11.7281 23.0419 11.7281 23.0218 11.7416 23.0086C11.7483 22.9952 11.7549 22.9818 11.7683 22.9684C11.7883 22.9484 11.8084 22.935 11.8352 22.9216C11.862 22.9083 11.8887 22.9016 11.9221 22.9016C11.9555 22.9016 11.9823 22.9083 12.009 22.9216C12.0358 22.935 12.0559 22.9484 12.0759 22.9684C12.0893 22.9818 12.0959 22.9952 12.1026 23.0086C12.1093 23.0218 12.116 23.042 12.1227 23.0687C12.1227 23.0955 12.1293 23.1289 12.1293 23.1623C12.136 23.2024 12.136 23.2492 12.136 23.3093C12.136 23.3695 12.136 23.4164 12.1293 23.4565Z" fill="#CECECF"/>
<path d="M13.3595 22.7007V23.4496L12.8715 22.7007H12.6575V23.9244H12.8982V23.1688L13.3863 23.9244H13.6002V22.7007H13.3595Z" fill="#CECECF"/>
<path d="M15.2384 23.4567C15.2251 23.4232 15.205 23.3897 15.1782 23.363C15.1649 23.3496 15.1515 23.3363 15.1382 23.3296C15.1248 23.3162 15.1114 23.3095 15.0847 23.2962C15.185 23.236 15.2385 23.1557 15.2385 23.0353C15.2385 22.9819 15.2252 22.9351 15.2118 22.895C15.1918 22.8548 15.165 22.8214 15.1316 22.7881C15.1049 22.768 15.0848 22.7546 15.0513 22.7412C15.0446 22.7346 15.0313 22.7279 15.0179 22.7212C14.9644 22.7079 14.9176 22.7012 14.8574 22.7012H14.3694V23.9249H14.8776C14.9377 23.9249 14.9912 23.9115 15.0314 23.8981C15.0782 23.878 15.1183 23.8579 15.1517 23.8245C15.1851 23.7978 15.2119 23.7576 15.2253 23.7175C15.2453 23.6775 15.2521 23.624 15.2521 23.5705C15.2518 23.5302 15.2451 23.49 15.2384 23.4567ZM14.6032 22.915H14.8372C14.8506 22.915 14.864 22.915 14.8707 22.9217C14.9108 22.9217 14.9308 22.9284 14.9576 22.9485C14.9844 22.9752 14.9977 23.0087 14.9977 23.0555C14.9977 23.0956 14.9844 23.1291 14.9576 23.1557C14.9241 23.1825 14.8908 23.1958 14.8372 23.1958H14.6032V22.915ZM14.971 23.6706C14.9443 23.6973 14.9041 23.7107 14.8574 23.7107H14.6033V23.4098H14.8574C14.9042 23.4098 14.9443 23.4232 14.971 23.45C14.9978 23.4767 15.0178 23.5102 15.0178 23.557C15.0178 23.6037 14.9977 23.6438 14.971 23.6706Z" fill="#CECECF"/>
<path d="M16.0407 22.7007H15.8535L15.4055 23.9244H15.6529L15.7265 23.7037H16.1611L16.2347 23.9244H16.4821L16.0407 22.7007ZM15.7933 23.5031L15.9538 23.0618L16.1009 23.5031H15.7933Z" fill="#CECECF"/>
<path d="M17.3783 22.7007V23.4496L16.8901 22.7007H16.6829V23.9244H16.9169V23.1688L17.4051 23.9244H17.6191V22.7007H17.3783Z" fill="#CECECF"/>
<path d="M18.5016 23.1821L18.9027 22.7007H18.6152L18.1806 23.2289V22.7007H17.9465V23.9244H18.1806V23.5566L18.3411 23.3626L18.6553 23.9243H18.9361L18.5016 23.1821Z" fill="#CECECF"/>
<path d="M31.2727 15.038C31.2393 15.0715 31.1924 15.0848 31.1323 15.0848C31.0988 15.0848 31.0721 15.0781 31.0454 15.0647C31.0186 15.058 30.9985 15.0379 30.9785 15.0245C30.9718 15.0112 30.9585 14.9977 30.9518 14.9778C30.9451 14.9644 30.9384 14.9443 30.9317 14.9176C30.9317 14.8908 30.9251 14.8574 30.9251 14.824C30.9251 14.7839 30.9184 14.7371 30.9184 14.6769C30.9184 14.6167 30.9251 14.57 30.9251 14.5298C30.9251 14.4896 30.9317 14.4629 30.9317 14.4363C30.9384 14.4095 30.9451 14.3894 30.9518 14.3761C30.9585 14.356 30.9718 14.3426 30.9785 14.3292C30.9985 14.3093 31.0186 14.2958 31.0454 14.2825C31.0721 14.2758 31.0988 14.2692 31.1323 14.2692C31.1924 14.2692 31.2393 14.2825 31.2727 14.3159C31.3061 14.3493 31.3262 14.3895 31.3396 14.4429H31.5803C31.5602 14.3093 31.5067 14.2157 31.4265 14.1488C31.3462 14.0887 31.2459 14.0552 31.1323 14.0552C31.0654 14.0552 30.9985 14.0685 30.9518 14.0887C30.8983 14.1087 30.8515 14.1421 30.8047 14.1822C30.7779 14.2157 30.7512 14.2491 30.7378 14.2825C30.7177 14.3093 30.7044 14.3493 30.6977 14.3894C30.691 14.4296 30.6843 14.4697 30.6843 14.5164V14.8374C30.6843 14.8842 30.691 14.9244 30.6977 14.9645C30.7044 15.0046 30.7177 15.0381 30.7378 15.0715C30.7511 15.1049 30.7779 15.1383 30.8047 15.1717C30.8515 15.2118 30.8983 15.2453 30.9518 15.2653C30.9986 15.2854 31.0654 15.2987 31.1323 15.2987C31.2459 15.2987 31.3462 15.2653 31.4265 15.1985C31.5067 15.1383 31.5602 15.038 31.5803 14.911H31.3396C31.3262 14.9644 31.3061 15.0045 31.2727 15.038Z" fill="#CECECF"/>
<path d="M32.483 14.7575C32.5164 14.7508 32.5432 14.7374 32.5699 14.7173C32.5967 14.6972 32.6235 14.6772 32.6435 14.6504C32.6635 14.6236 32.677 14.5903 32.6903 14.5568C32.697 14.5367 32.7037 14.51 32.7037 14.4833C32.7104 14.4699 32.7104 14.4498 32.7104 14.4365C32.7104 14.3897 32.697 14.3361 32.6836 14.2961C32.6635 14.2493 32.6368 14.2091 32.6033 14.1757C32.5699 14.1423 32.5298 14.1155 32.4763 14.0955C32.4496 14.0821 32.4296 14.0754 32.3961 14.0687H32.3894C32.3627 14.062 32.336 14.062 32.3092 14.062H31.8345V15.2856H32.0685V14.7976H32.2424L32.4831 15.2856H32.7572L32.483 14.7575ZM32.4229 14.5568C32.3894 14.5836 32.3493 14.6037 32.2959 14.6037H32.0685V14.2759H32.2959C32.3493 14.2759 32.3895 14.2893 32.4229 14.3227C32.4563 14.3495 32.4697 14.3897 32.4697 14.4365C32.4697 14.49 32.4563 14.5234 32.4229 14.5568Z" fill="#CECECF"/>
<path d="M33.8069 14.2759V14.062H32.9978V15.2856H33.8069V15.0717H33.2385V14.7774H33.72V14.5635H33.2385V14.2759H33.8069Z" fill="#CECECF"/>
<path d="M34.9637 14.4565C34.9637 14.4431 34.9571 14.4297 34.9571 14.4231C34.9571 14.3896 34.9437 14.3562 34.937 14.3294C34.9237 14.296 34.9102 14.2693 34.8902 14.2425C34.8501 14.1823 34.7966 14.1356 34.7364 14.1088C34.6762 14.0821 34.6094 14.062 34.5224 14.062H34.0811V15.2856H34.5224C34.6093 15.2856 34.6762 15.2724 34.7364 15.2455C34.7699 15.2322 34.7966 15.2121 34.8233 15.192C34.8501 15.1719 34.8701 15.1453 34.8902 15.1118C34.9102 15.0851 34.9236 15.0583 34.937 15.0249C34.9437 14.998 34.9571 14.9647 34.9571 14.9313C34.9637 14.8979 34.9637 14.8577 34.9704 14.8176V14.5367C34.9637 14.5099 34.9637 14.4833 34.9637 14.4565ZM34.7297 14.8042C34.7297 14.8376 34.723 14.8643 34.723 14.8911C34.7163 14.9179 34.7163 14.9379 34.7096 14.9512C34.703 14.9712 34.6895 14.9847 34.6829 14.998C34.6429 15.0515 34.5826 15.0716 34.5024 15.0716H34.3219V14.2758H34.5024C34.5826 14.2758 34.6429 14.3027 34.6829 14.3561C34.6896 14.3695 34.703 14.3829 34.7096 14.4029C34.7163 14.4163 34.7163 14.4364 34.723 14.4631C34.723 14.4898 34.7297 14.5165 34.7297 14.55V14.8042Z" fill="#CECECF"/>
<path d="M35.2578 14.062V15.2856H35.4919V14.062H35.2578Z" fill="#CECECF"/>
<path d="M35.7327 14.062V14.2759H36.0536V15.2856H36.2877V14.2759H36.6087V14.062H35.7327Z" fill="#CECECF"/>
<path d="M37.8388 15.038C37.8054 15.0715 37.7586 15.0848 37.6984 15.0848C37.665 15.0848 37.6383 15.0781 37.6115 15.0647C37.5846 15.058 37.5646 15.0379 37.5446 15.0245C37.5379 15.0112 37.5245 14.9977 37.5179 14.9778C37.5112 14.9644 37.5045 14.9443 37.4978 14.9176C37.4978 14.8908 37.4911 14.8574 37.4911 14.824C37.4845 14.7839 37.4845 14.7371 37.4845 14.6769C37.4845 14.6167 37.4845 14.57 37.4911 14.5298C37.4911 14.4896 37.4978 14.4629 37.4978 14.4363C37.5045 14.4095 37.5112 14.3894 37.5179 14.3761C37.5245 14.356 37.5379 14.3426 37.5446 14.3292C37.5646 14.3093 37.5846 14.2958 37.6115 14.2825C37.6382 14.2758 37.6649 14.2692 37.6984 14.2692C37.7586 14.2692 37.8053 14.2825 37.8388 14.3159C37.8722 14.3493 37.8924 14.3895 37.9057 14.4429H38.1464C38.1264 14.3093 38.0729 14.2157 37.9926 14.1488C37.9124 14.0887 37.8121 14.0552 37.6985 14.0552C37.6316 14.0552 37.5648 14.0685 37.5113 14.0887C37.4644 14.1087 37.411 14.1421 37.3708 14.1822C37.3374 14.2157 37.3174 14.2491 37.2972 14.2825C37.2839 14.3093 37.2705 14.3493 37.2638 14.3894C37.2572 14.4296 37.2505 14.4697 37.2505 14.5164V14.8374C37.2505 14.8842 37.2572 14.9244 37.2638 14.9645C37.2705 15.0046 37.2839 15.0381 37.2972 15.0715C37.3173 15.1049 37.3373 15.1383 37.3708 15.1717C37.4109 15.2118 37.4644 15.2453 37.5113 15.2653C37.5648 15.2854 37.6316 15.2987 37.6985 15.2987C37.8122 15.2987 37.9125 15.2653 37.9926 15.1985C38.0729 15.1383 38.1264 15.038 38.1464 14.911H37.9057C37.8924 14.9644 37.8722 15.0045 37.8388 15.038Z" fill="#CECECF"/>
<path d="M38.8954 14.062H38.7082L38.2603 15.2856H38.5143L38.5879 15.0717H39.0225L39.0961 15.2856H39.3435L38.8954 14.062ZM38.6548 14.871L38.8086 14.4231L38.9556 14.871H38.6548Z" fill="#CECECF"/>
<path d="M40.1859 14.7575C40.2193 14.7508 40.246 14.7374 40.2728 14.7173C40.2995 14.6972 40.3263 14.6772 40.3464 14.6504C40.3664 14.6236 40.3798 14.5903 40.3932 14.5568C40.4066 14.5233 40.4133 14.4833 40.4133 14.4365C40.4133 14.3897 40.4066 14.3361 40.3866 14.2961C40.3665 14.2493 40.3397 14.2091 40.3063 14.1757C40.2729 14.1423 40.2327 14.1155 40.1793 14.0955C40.1325 14.0754 40.079 14.062 40.0188 14.062H39.5374V15.2856H39.7781V14.7976H39.9453L40.186 15.2856H40.4601L40.1859 14.7575ZM40.1257 14.5568C40.0923 14.5836 40.0521 14.6037 39.9987 14.6037H39.7781V14.2759H39.9987C40.0522 14.2759 40.0923 14.2893 40.1257 14.3227C40.1592 14.3495 40.1725 14.3897 40.1725 14.4365C40.1725 14.49 40.1592 14.5234 40.1257 14.5568Z" fill="#CECECF"/>
<path d="M41.5832 14.4231C41.5765 14.3896 41.5698 14.3562 41.5565 14.3294C41.5498 14.296 41.5298 14.2693 41.5164 14.2425C41.4696 14.1823 41.4161 14.1356 41.3559 14.1088C41.3024 14.0821 41.2289 14.062 41.142 14.062H40.7007V15.2856H41.142C41.2289 15.2856 41.3025 15.2724 41.3559 15.2455C41.416 15.2187 41.4696 15.1719 41.5164 15.1118C41.5298 15.0851 41.5498 15.0583 41.5565 15.0249C41.5698 14.998 41.5765 14.9647 41.5832 14.9313C41.5832 14.8979 41.5899 14.8577 41.5899 14.8176V14.5367C41.5899 14.4965 41.5832 14.4565 41.5832 14.4231ZM41.3492 14.8042C41.3492 14.8376 41.3492 14.8643 41.3425 14.8911C41.3425 14.9179 41.3359 14.9379 41.3292 14.9512C41.3225 14.9712 41.3158 14.9847 41.3024 14.998C41.2623 15.0515 41.2021 15.0716 41.1219 15.0716H40.9413V14.2758H41.1219C41.2021 14.2758 41.2622 14.3027 41.3024 14.3561C41.3157 14.3695 41.3224 14.3829 41.3292 14.4029C41.3359 14.4163 41.3425 14.4364 41.3425 14.4631C41.3492 14.4898 41.3492 14.5165 41.3492 14.55V14.8042Z" fill="#CECECF"/>
<path d="M41.7149 2.98151V7.69412C41.7149 7.88379 41.5597 8.03892 41.3701 8.03892H35.5655C35.3758 8.03892 35.2207 7.88379 35.2207 7.69412V2.98151C35.2207 2.79185 35.3758 2.63672 35.5655 2.63672H41.3701C41.5596 2.63663 41.7149 2.79185 41.7149 2.98151Z" fill="#F7D072"/>
<path opacity="0.2" d="M40.4397 3.77775L41.4494 2.76807H41.1217L40.2525 3.64398L40.1188 3.77775L40.0185 3.87136L39.3298 4.56007H37.8321L37.6983 4.4263L37.1433 3.87136L36.9226 3.64398L36.0467 2.76807H35.7191L36.5883 3.64398L36.7221 3.77775H35.338V4.00504H36.956L37.384 4.43966L37.4976 4.56007V4.82743H35.3379V5.06148H37.4976V5.88388H35.3379V6.11116H37.4976V6.38529H37.511L37.0897 6.79996L36.956 6.93373H35.3379V7.16778H36.722L35.8528 8.03702H36.1804L37.0496 7.16778L37.832 6.38556H39.3297L40.988 8.03711H41.3089L40.4397 7.16787H41.7167V6.93382H40.2123L39.664 6.38556V6.11143H41.7168V5.88414H39.664V5.06175H41.7168V4.8277H39.664V4.56033L40.2123 4.0053H41.7167V3.77802H40.4397V3.77775ZM39.4368 6.15142H37.725V4.78744H39.4368V6.15142Z" fill="white"/>
<path d="M37.7184 4.42676L37.9457 4.65404H38.9888L39.0824 4.56053L39.2162 4.42676H37.7184ZM37.7184 4.42676L37.9457 4.65404H38.9888L39.0824 4.56053L39.2162 4.42676H37.7184ZM37.7184 4.42676L37.9457 4.65404H38.9888L39.0824 4.56053L39.2162 4.42676H37.7184ZM37.7184 4.42676L37.9457 4.65404H38.9888L39.0824 4.56053L39.2162 4.42676H37.7184ZM39.1225 6.15187L38.9888 6.01819H37.9457L37.8187 6.15187H37.8121L37.7185 6.25216H39.2162L39.1225 6.15187ZM37.7184 4.42676L37.9457 4.65404H38.9888L39.0824 4.56053L39.2162 4.42676H37.7184ZM37.384 4.42676V6.25216H39.5505V4.42676H37.384ZM39.3231 6.01819H37.6113V4.65413H39.3231V6.01819ZM37.7184 4.42676L37.9457 4.65404H38.9888L39.0824 4.56053L39.2162 4.42676H37.7184ZM37.7184 4.42676L37.9457 4.65404H38.9888L39.0824 4.56053L39.2162 4.42676H37.7184ZM37.7184 4.42676L37.9457 4.65404H38.9888L39.0824 4.56053L39.2162 4.42676H37.7184ZM37.7184 4.42676L37.9457 4.65404H38.9888L39.0824 4.56053L39.2162 4.42676H37.7184ZM37.7184 4.42676L37.9457 4.65404H38.9888L39.0824 4.56053L39.2162 4.42676H37.7184ZM37.7184 4.42676L37.9457 4.65404H38.9888L39.0824 4.56053L39.2162 4.42676H37.7184Z" fill="#717070"/>
<path d="M36.9345 3.64209L37.1644 3.87201H35.2205V3.64209H36.9345Z" fill="#717070"/>
<path d="M41.7147 3.64209V3.87201H39.7708L40.0006 3.64209H41.7147Z" fill="#717070"/>
<path d="M37.6127 4.6958H35.2205V4.92572H37.6127V4.6958Z" fill="#717070"/>
<path d="M41.7147 4.6958H39.3225V4.92572H41.7147V4.6958Z" fill="#717070"/>
<path d="M37.6127 5.74951H35.2205V5.97943H37.6127V5.74951Z" fill="#717070"/>
<path d="M41.7147 5.74951H39.3225V5.97943H41.7147V5.74951Z" fill="#717070"/>
<path d="M37.1647 6.80273L36.9348 7.03266H35.2205V6.80273H37.1647Z" fill="#717070"/>
<path d="M41.7147 6.80273V7.03266H40.0003L39.7705 6.80273H41.7147Z" fill="#717070"/>
<path d="M37.9479 6.02002L35.9292 8.03869H35.6042L37.6229 6.02002H37.9479Z" fill="#717070"/>
<path d="M41.3316 2.63623L39.313 4.6549H38.988L41.0067 2.63623H41.3316Z" fill="#717070"/>
<path d="M37.9475 4.6549H37.6224L35.6038 2.63623H35.9288L37.9475 4.6549Z" fill="#717070"/>
<path d="M41.331 8.03869H41.006L39.2172 6.24994L39.1215 6.15423L38.9873 6.02002H39.3123L39.4373 6.145L39.5422 6.24994L39.6672 6.37492L40.0953 6.80304L40.2296 6.93725L40.3253 7.03296L40.4595 7.16717L41.331 8.03869Z" fill="#717070"/>
<path d="M6.94506 4.69547C6.94506 3.976 7.24178 3.32613 7.71902 2.86049C7.25689 2.40961 6.62549 2.13135 5.92887 2.13135C4.51269 2.13135 3.36475 3.27938 3.36475 4.69547C3.36475 6.11165 4.51277 7.25959 5.92887 7.25959C6.62558 7.25959 7.25698 6.98133 7.71902 6.53045C7.24178 6.06489 6.94506 5.41494 6.94506 4.69547Z" fill="#DC3B39"/>
<path d="M9.50915 2.13135C8.81244 2.13135 8.18112 2.40961 7.71899 2.86049C8.19624 3.32613 8.49296 3.976 8.49296 4.69547C8.49296 5.41494 8.19624 6.06481 7.71899 6.53045C8.18112 6.98133 8.81253 7.25959 9.50915 7.25959C10.9253 7.25959 12.0733 6.11156 12.0733 4.69547C12.0733 3.27938 10.9252 2.13135 9.50915 2.13135Z" fill="#E6AB2D"/>
<path d="M8.493 4.69533C8.493 3.97586 8.19628 3.326 7.71903 2.86035C7.24179 3.326 6.94507 3.97586 6.94507 4.69533C6.94507 5.4148 7.24179 6.06467 7.71903 6.53031C8.19628 6.06476 8.493 5.4148 8.493 4.69533Z" fill="#D67261"/>
<path d="M8.49303 4.69541C8.49303 4.64127 8.49083 4.58766 8.48749 4.53431L7.31784 3.36475C7.23215 3.50546 7.15946 3.65496 7.10181 3.81185L8.45005 5.16009C8.47773 5.00927 8.49303 4.85423 8.49303 4.69541Z" fill="#E6AB2D"/>
<path d="M6.97117 4.33252C6.95439 4.45108 6.94507 4.57211 6.94507 4.69524C6.94507 4.79368 6.95113 4.89071 6.96194 4.98625L8.07402 6.09833C8.1635 5.96201 8.24023 5.81673 8.30272 5.66397L6.97117 4.33252Z" fill="#E6AB2D"/>
<path opacity="0.2" d="M45 16.3555H0V16.9172H45V16.3555Z" fill="#040000"/>
<path opacity="0.2" d="M44.9999 1.43095V29.1398C44.9999 29.9288 44.3513 30.5773 43.5623 30.5773H7.2146L14.3692 23.4228L14.6031 23.1888L14.8706 22.9214L15.0511 22.7409L18.7755 19.0165L18.9694 18.8226V18.8159L19.0964 18.6955L19.1097 18.6821L19.6781 18.1071L19.8586 17.9333L20.875 16.9169L21.4367 16.3552L27.4478 10.3441L29.3802 8.41184L37.6714 0.113818L37.7852 0H43.5623C44.3513 0 44.9999 0.641865 44.9999 1.43095Z" fill="#040000"/>
<defs>
<linearGradient id="paint0_linear_338_660" x1="22.5" y1="0.113743" x2="22.5" y2="30.6911" gradientUnits="userSpaceOnUse">
<stop stop-color="#44484A"/>
<stop offset="1" stop-color="#193741"/>
</linearGradient>
</defs>
</svg>
